<?xml version="1.0" encoding="utf-8"?>
<!-- Generator: Adobe Illustrator 25.0.0, SVG Export Plug-In . SVG Version: 6.00 Build 0)  -->
<svg version="1.1" id="Layer_1" xmlns="http://www.w3.org/2000/svg" xmlns:xlink="http://www.w3.org/1999/xlink" x="0px" y="0px"
	 viewBox="0 0 34 36.35" style="enable-background:new 0 0 34 36.35;" xml:space="preserve">
<style type="text/css">
	.st0{fill:#F89836;}
	.st1{fill:#883593;}
	.st2{fill:#E6E648;}
	.st3{fill:#187CAC;}
	.st4{fill:#010101;stroke:#010101;stroke-width:0.75;stroke-linecap:round;stroke-miterlimit:10;}
	.st5{fill:none;stroke:#010101;stroke-linecap:round;stroke-miterlimit:10;}
</style>
<path class="st0" d="M14.9,4.86c0,0-3.62,7.05-11.11,14.63c0,0,3.58-3.7,10.93-4.98C14.72,14.51,14.06,8.74,14.9,4.86z"/>
<path class="st1" d="M3.79,19.42c0,0,12.2,6.67,14.99,9.61l0.47,0.18c0,0-3.59-6.52-4.52-14.74C14.72,14.47,8.88,15.02,3.79,19.42z"
	/>
<path class="st2" d="M14.8,14.42c0,0,0.55,7.29,4.76,15.21c0,0,3.28-9.22,11.03-14.33C30.59,15.3,22.42,13.1,14.8,14.42z"/>
<path class="st3" d="M30.59,15.37c0,0-9.24-5.01-15.1-12.14l-0.27,0.51c0,0-1.13,4.28-0.39,10.76
	C14.84,14.5,21.25,13.16,30.59,15.37z"/>
<path class="st3" d="M16.45,12.46"/>
<path class="st4" d="M4.66,19.33l-0.14-0.11c0.02-0.02,1.89-2.15,6.07-3.67c3.84-1.4,10.48-2.56,20.3-0.14l-0.04,0.17
	c-5.39-1.33-13.26-2.39-20.18,0.13C6.53,17.2,4.68,19.31,4.66,19.33z"/>
<path class="st4" d="M19.72,30.14c-4.19-7.97-5.17-14.86-5.26-19.24c-0.09-4.75,0.82-7.65,0.82-7.68l0.17,0.05
	c-0.01,0.03-0.91,2.91-0.82,7.63c0.09,4.36,1.07,11.22,5.24,19.15L19.72,30.14z"/>
<path class="st5" d="M2.45,20.83c5.52-5.34,10.13-11.45,13.64-18.5"/>
<path class="st5" d="M18.36,33.08c2.55-7.63,6.37-14.18,13.64-18.5"/>
<path class="st5" d="M14.69,2.3c4.46,5.53,10.22,10.07,17.27,13.66"/>
<path class="st5" d="M2,18.63c8.03,3.75,15.62,9.06,22.86,15.43"/>
<rect x="110.19" y="131.86" style="fill:none;" width="5.15" height="0"/>
</svg>
