<?xml version="1.0" encoding="utf-8"?>
<!-- Generator: Adobe Illustrator 25.0.0, SVG Export Plug-In . SVG Version: 6.00 Build 0)  -->
<svg version="1.1" id="Layer_1" xmlns="http://www.w3.org/2000/svg" xmlns:xlink="http://www.w3.org/1999/xlink" x="0px" y="0px"
	 viewBox="0 0 474 506.82" style="enable-background:new 0 0 474 506.82;" xml:space="preserve">
<style type="text/css">
	.st0{fill:#F89836;}
	.st1{fill:#883593;}
	.st2{fill:#E6E648;}
	.st3{fill:#187CAC;}
	.st4{fill:#010101;stroke:#010101;stroke-width:1.25;stroke-linecap:round;stroke-miterlimit:10;}
	.st5{fill:none;stroke:#010101;stroke-width:4;stroke-linecap:round;stroke-miterlimit:10;}
</style>
<g>
	<path class="st0" d="M203.58,47.06c0,0-55.86,108.88-171.51,225.88c0,0,55.26-57.17,168.79-76.82
		C200.87,196.12,190.63,107.04,203.58,47.06z"/>
	<path class="st1" d="M32.07,271.85c0,0,188.3,102.98,231.39,148.4l7.19,2.77c0,0-55.47-100.7-69.76-227.53
		C200.9,195.49,110.69,203.98,32.07,271.85z"/>
	<path class="st2" d="M202.05,194.71c0,0,8.48,112.57,73.5,234.82c0,0,50.59-142.33,170.38-221.2
		C445.93,208.33,319.81,174.28,202.05,194.71z"/>
	<path class="st3" d="M445.93,209.29c0,0-142.7-77.42-233.08-187.47l-4.12,7.92c0,0-17.37,66.11-5.99,166.11
		C202.74,195.85,301.66,175.29,445.93,209.29z"/>
	<path class="st3" d="M227.5,164.39"/>
	<path class="st4" d="M45.5,270.46l-2.13-1.73c0.28-0.33,29.23-33.22,93.66-56.71c59.34-21.64,161.89-39.57,313.41-2.12l-0.65,2.59
		c-83.18-20.56-204.75-36.91-311.56,1.97C74.39,237.68,45.78,270.14,45.5,270.46z"/>
	<path class="st4" d="M278.01,437.39c-64.65-123.03-79.83-229.42-81.18-297.01c-1.46-73.29,12.59-118.11,12.73-118.56l2.57,0.8
		c-0.14,0.44-14.07,44.94-12.6,117.83c1.36,67.27,16.49,173.18,80.87,295.69L278.01,437.39z"/>
	<path class="st5" d="M11.32,293.6C96.54,211.14,167.8,116.83,221.94,7.97"/>
	<path class="st5" d="M257.04,482.84c39.3-117.86,98.37-219.02,210.62-285.63"/>
	<path class="st5" d="M200.35,7.52c68.89,85.35,157.83,155.5,266.62,210.92"/>
	<path class="st5" d="M4.44,259.62c124,57.89,241.15,139.87,352.93,238.26"/>
</g>
<rect x="470.82" y="534.35" style="fill:none;" width="6.35" height="0"/>
</svg>
