<?xml version="1.0" encoding="utf-8"?>
<!-- Generator: Adobe Illustrator 25.0.0, SVG Export Plug-In . SVG Version: 6.00 Build 0)  -->
<svg version="1.1" id="Layer_1" xmlns="http://www.w3.org/2000/svg" xmlns:xlink="http://www.w3.org/1999/xlink" x="0px" y="0px"
	 viewBox="0 0 528.74 551.29" style="enable-background:new 0 0 528.74 551.29;" xml:space="preserve">
<style type="text/css">
	.st0{fill:#F89836;}
	.st1{fill:#883593;}
	.st2{fill:#E6E648;}
	.st3{fill:#187CAC;}
	.st4{fill:#010101;stroke:#010101;stroke-width:1.25;stroke-linecap:round;stroke-miterlimit:10;}
	.st5{fill:none;stroke:#010101;stroke-width:4;stroke-linecap:round;stroke-miterlimit:10;}
</style>
<g>
	<path class="st0" d="M227.68,51.41c0,0-60.5,117.92-185.75,244.64c0,0,59.85-61.92,182.81-83.2
		C224.74,212.85,213.66,116.37,227.68,51.41z"/>
	<path class="st1" d="M41.93,294.87c0,0,203.94,111.53,250.61,160.73l7.79,3c0,0-60.08-109.07-75.55-246.43
		C224.78,212.17,127.08,221.36,41.93,294.87z"/>
	<path class="st2" d="M226.02,211.32c0,0,9.18,121.92,79.61,254.32c0,0,54.79-154.15,184.53-239.58
		C490.16,226.07,353.56,189.19,226.02,211.32z"/>
	<path class="st3" d="M490.16,227.12c0,0-154.55-83.85-252.44-203.04l-4.46,8.58c0,0-18.82,71.6-6.49,179.91
		C226.77,212.56,333.91,190.29,490.16,227.12z"/>
	<path class="st3" d="M253.6,178.48"/>
	<path class="st4" d="M56.47,293.36l-2.31-1.88c0.31-0.36,31.66-35.98,101.44-61.43c64.27-23.44,175.34-42.86,339.44-2.3l-0.71,2.81
		c-90.09-22.27-221.76-39.97-337.44,2.13C87.76,257.86,56.78,293.01,56.47,293.36z"/>
	<path class="st4" d="M308.29,474.15c-70.02-133.25-86.46-248.48-87.92-321.68c-1.58-79.38,13.63-127.92,13.79-128.4l2.78,0.86
		c-0.15,0.48-15.24,48.67-13.65,127.62c1.47,72.86,17.86,187.57,87.59,320.25L308.29,474.15z"/>
	<path class="st5" d="M19.46,318.43c92.29-89.31,169.47-191.46,228.11-309.35"/>
	<path class="st5" d="M285.59,523.38c42.57-127.65,106.54-237.21,228.11-309.35"/>
	<path class="st5" d="M224.18,8.58C298.8,101.02,395.13,177,512.95,237.02"/>
	<path class="st5" d="M12,281.63c134.29,62.7,261.18,151.48,382.24,258.05"/>
</g>
<rect x="517.12" y="579.17" style="fill:none;" width="6.88" height="0"/>
</svg>
