<?xml version="1.0" encoding="utf-8"?>
<!-- Generator: Adobe Illustrator 25.0.0, SVG Export Plug-In . SVG Version: 6.00 Build 0)  -->
<svg version="1.1" id="Layer_1" xmlns="http://www.w3.org/2000/svg" xmlns:xlink="http://www.w3.org/1999/xlink" x="0px" y="0px"
	 viewBox="0 0 512 512" style="enable-background:new 0 0 512 512;" xml:space="preserve">
<style type="text/css">
	.st0{fill:#F89836;}
	.st1{fill:#883593;}
	.st2{fill:#E6E648;}
	.st3{fill:#187CAC;}
	.st4{fill:#010101;stroke:#010101;stroke-width:1.25;stroke-linecap:round;stroke-miterlimit:10;}
	.st5{fill:none;stroke:#010101;stroke-width:4;stroke-linecap:round;stroke-miterlimit:10;}
	.st6{fill:none;}
</style>
<g>
	<path class="st0" d="M289.7,48c0,0-85.6,77.9-226.9,143.2c0,0,67.9-32.3,175.1-12.1C237.8,179.2,258.3,96.8,289.7,48z"/>
	<path class="st1" d="M63.1,190.3c0,0,132.7,153.7,155.8,208.3l5.5,4.8c0,0-15.7-107.6,13.7-224.8
		C238.1,178.6,155.3,156.2,63.1,190.3z"/>
	<path class="st2" d="M239.3,178.3c0,0-29.8,102.6-12.8,232.5c0,0,92.1-109.3,224.4-139.5C450.9,271.3,350.5,199.3,239.3,178.3z"/>
	<path class="st3" d="M450.6,272.2c0,0-100.8-116-144.3-243.5l-6.3,5.7c0,0-37.3,52.8-60.4,145.2C239.6,179.6,334,194.2,450.6,272.2
		z"/>
	<path class="st3" d="M271.9,159.9"/>
	<path class="st4" d="M75.5,193.5l-1.3-2.2c0.4-0.2,36.9-19.7,101.8-19.2c59.8,0.5,156.6,18.7,278.4,102.1l-1.4,2.1
		c-66.9-45.8-169.2-100.7-276.7-101.6C112,174,75.8,193.3,75.5,193.5z"/>
	<path class="st4" d="M226.1,418.6c-16.5-130.5,5.4-229.8,26.6-290.1C275.8,63,303.1,28,303.4,27.6l2,1.6
		c-0.3,0.3-27.4,35.2-50.3,100.2c-21.1,60.1-42.9,158.9-26.5,288.9L226.1,418.6z"/>
	<path class="st5" d="M37.5,202.7C140.4,157.9,234.8,97.9,318.9,19.4"/>
	<path class="st5" d="M192.5,451.9c73.9-91.4,159.8-161.4,281.4-183.2"/>
	<path class="st5" d="M299.9,11.9c32.7,98.5,88.3,190.2,166.3,275.4"/>
	<path class="st5" d="M42.7,170.3c90.7,92.4,167.3,204,233.7,328.2"/>
</g>
<polygon class="st6" points="489.8,536.9 496.2,536.9 496.2,536.9 "/>
</svg>
