<?xml version="1.0" encoding="utf-8"?>
<!-- Generator: Adobe Illustrator 25.0.0, SVG Export Plug-In . SVG Version: 6.00 Build 0)  -->
<svg version="1.1" id="Layer_1" xmlns="http://www.w3.org/2000/svg" xmlns:xlink="http://www.w3.org/1999/xlink" x="0px" y="0px"
	 viewBox="0 0 512 512" style="enable-background:new 0 0 512 512;" xml:space="preserve">
<style type="text/css">
	.st0{fill:#F89836;}
	.st1{fill:#883593;}
	.st2{fill:#E6E648;}
	.st3{fill:#187CAC;}
	.st4{fill:#010101;stroke:#010101;stroke-width:1.25;stroke-linecap:round;stroke-miterlimit:10;}
	.st5{fill:none;stroke:#010101;stroke-width:4;stroke-linecap:round;stroke-miterlimit:10;}
	.st6{fill:none;}
</style>
<g>
	<path class="st0" d="M363.4,40.1c0,0-119.3,48.9-292.1,63.5c0,0,83.4-7.9,187.9,54.1C259,157.6,311.9,79.2,363.4,40.1z"/>
	<path class="st1" d="M71.9,102.7c0,0,80.4,211.5,83.7,277.4l3.9,7.1c0,0,24.6-118.6,100-230.1C259.6,157.1,181.4,102.1,71.9,102.7z
		"/>
	<path class="st2" d="M260.9,157.3c0,0-70.3,96.1-102,238.5c0,0,138.1-79.3,288.1-60.5C447,335.3,369.4,221.6,260.9,157.3z"/>
	<path class="st3" d="M446.4,336.1c0,0-61.3-159.9-58.3-309.9l-8.8,3.6c0,0-59.2,41.1-118.6,129C260.8,158.8,354,210,446.4,336.1z"
		/>
	<path class="st3" d="M302.1,150.4"/>
	<path class="st4" d="M83.7,110.8l-0.5-2.8c0.5-0.1,46.1-6.6,113.9,18.7c62.4,23.3,156.8,79.3,252.6,213l-2.3,1.7
		c-52.6-73.4-138.8-169.9-251-211.8C129.3,104.3,84.1,110.7,83.7,110.8z"/>
	<path class="st4" d="M155.6,403.8c32.5-142.9,93.2-238.5,138.4-293.6c49.1-59.8,91.1-86,91.5-86.3l1.5,2.4
		c-0.4,0.2-42.1,26.4-90.8,85.7c-45,54.9-105.5,150-137.8,292.4L155.6,403.8z"/>
	<path class="st5" d="M40.4,105.9c124.8-7.7,246.5-34.5,364.5-84.7"/>
	<path class="st5" d="M107.7,425.9c112.2-67.5,228.8-108.1,364.4-84.6"/>
	<path class="st5" d="M387.8,6.2c-3.3,115.6,20,232.8,69.2,351.7"/>
	<path class="st5" d="M58.2,74c59.7,131.3,97.4,277.3,119.6,432.7"/>
</g>
<polygon class="st6" points="489.8,536.9 496.2,536.9 496.2,536.9 "/>
</svg>
