<?xml version="1.0" encoding="utf-8"?>
<!-- Generator: Adobe Illustrator 24.3.0, SVG Export Plug-In . SVG Version: 6.00 Build 0)  -->
<svg version="1.1" id="Layer_1" xmlns="http://www.w3.org/2000/svg" xmlns:xlink="http://www.w3.org/1999/xlink" x="0px" y="0px"
	 viewBox="0 0 218.47 72.18" style="enable-background:new 0 0 218.47 72.18;" xml:space="preserve">
<style type="text/css">
	.st0{fill:#010101;}
	.st1{fill:#ED1C24;}
	.st2{stroke:#000000;stroke-width:0.1;stroke-miterlimit:10;}
	.st3{font-family:'Abel-Regular';}
	.st4{font-size:13px;}
</style>
<g>
	<g>
		<path class="st0" d="M33.59,32.95c-1,5.79-6.61,10.52-12.44,10.52H9.94c-5.84,0-9.79-4.73-8.79-10.52l3.3-18.41
			c1-5.79,6.66-10.52,12.5-10.52h17.1l-3.77,7.77H15.66c-1.59,0-3.18,1.29-3.48,2.92L9,32.83c-0.29,1.58,0.83,2.92,2.42,2.92h10.91
			c1.65,0,3.18-1.34,3.48-2.92l0.88-5.2h-7.79l-0.94-7.77h17.99L33.59,32.95z"/>
		<path class="st0" d="M66.86,43.47h-7.84l2.77-15.84H47.92l-2.77,15.84h-7.79l7.02-39.46h7.79l-3.54,19.76l4.66-3.92h9.91
			l2.83-15.84h7.84L66.86,43.47z"/>
		<path class="st0" d="M103.78,32.95c-1,5.79-6.61,10.52-12.44,10.52h-8.26c-5.84,0-9.79-4.73-8.79-10.52l5.19-28.94h7.79
			l-5.13,28.82c-0.29,1.58,0.83,2.92,2.42,2.92h7.96c1.65,0,3.18-1.34,3.48-2.92l5.13-28.82h7.84L103.78,32.95z"/>
		<path class="st0" d="M132.2,43.47l-4.84-11.87h-6.9l3.77-7.77h8.43c1.65,0,3.18-1.29,3.48-2.92l1.06-6.2
			c0.3-1.64-0.77-2.92-2.42-2.92h-13.86l-5.6,31.68h-7.79l7.02-39.46h21.82c5.78,0,9.67,4.62,8.73,10.35c0,0.06,0,0.12,0,0.18
			l-1.18,6.55c0,0.06,0,0.12,0,0.18c-0.83,4.15-4.01,7.77-7.96,9.41l5.25,12.8H132.2z M143.94,21.26v-0.18
			C143.94,21.14,143.94,21.2,143.94,21.26z M145.12,14.54v-0.18C145.12,14.42,145.12,14.48,145.12,14.54z"/>
		<path class="st0" d="M145.94,43.47l7.02-39.46h7.79l-7.02,39.46H145.94z"/>
	</g>
	<g>
		<path class="st1" d="M162.44,4.11l1.42,39.88h10.97l25.88-28.51C200.7,15.48,186.39,2.14,162.44,4.11z"/>
		<path class="st1" d="M217.37,53.04l-40.18,2.77l-1.12-10.77l25.98-28.39C202.05,16.65,216.9,29.32,217.37,53.04z"/>
		<path class="st1" d="M174,2.81c0,0,20.1,3.1,27.65,11.7L214.3,0.72L174,2.81z"/>
		<path class="st1" d="M217.15,41.76c0,0-5.02-19.56-14.3-26.19l12.51-13.83L217.15,41.76z"/>
		<path class="st1" d="M176.31,69.45l-1.11-23.13c-0.03-0.72-0.68-1.28-1.44-1.25l-23.58,0.94c-1.22,0.05-1.78,1.46-0.9,2.25
			l24.69,22.19C174.88,71.27,176.37,70.63,176.31,69.45z"/>
	</g>
</g>
<text transform="matrix(1 0 0 1 10.0728 60.3912)" class="st2 st3 st4">A Platform For Every Needs</text>
</svg>
