<?xml version="1.0" encoding="utf-8"?>
<!-- Generator: Adobe Illustrator 23.0.1, SVG Export Plug-In . SVG Version: 6.00 Build 0)  -->
<svg version="1.1" id="Layer_1" xmlns="http://www.w3.org/2000/svg" xmlns:xlink="http://www.w3.org/1999/xlink" x="0px" y="0px"
	 viewBox="0 0 144 72" style="enable-background:new 0 0 144 72;" xml:space="preserve">
<style type="text/css">
	.st0{fill:#FFFFFF;}
</style>
<title>Asset 1</title>
<g>
	<g id="Layer_1-2">
		<g id="Layer_1-3">
			<g id="_2345817687872">
				<path class="st0" d="M37.3,3.9h-0.8c-0.4,0-0.8,0.3-0.8,0.8v15.6c0,0.4,0.3,0.8,0.8,0.8h0.8v0.8h-7.8V21h0.8
					c0.4,0,0.8-0.3,0.8-0.8l0,0c0-2.4,0-4.6,0-7h-5.4v7c0,0.4,0.3,0.8,0.8,0.8l0,0h0.8v0.8h-7.8V21h0.8c0.4,0,0.8-0.3,0.8-0.8l0,0
					V4.6c0-0.4-0.3-0.8-0.8-0.8l0,0h-0.8V3.1h7.8v0.8h-0.8c-0.4,0-0.8,0.3-0.8,0.8l0,0v7h5.4v-7c0-0.4-0.3-0.8-0.8-0.8l0,0h-0.8V3.1
					h7.8V3.9z"/>
				<path class="st0" d="M8.5,0h9.4v3.9h-0.8V2.3c0-0.4-0.3-0.8-0.8-0.8l0,0H12c-0.4,0-0.8,0.3-0.8,0.8v0v17.9
					c0,0.4,0.3,0.8,0.7,0.8c0,0,0,0,0,0h0.8v0.8H5V21h0.8c0.4,0,0.8-0.3,0.8-0.8l0,0V2.3c0-0.4-0.3-0.8-0.8-0.8l0,0H1.5
					c-0.4,0-0.8,0.3-0.8,0.8v1.6H0V0H8.5z"/>
				<path class="st0" d="M53.6,16.8l-0.8,5h-14V21h0.8c0.4,0,0.8-0.3,0.8-0.8V4.6c0-0.4-0.3-0.8-0.8-0.8h-0.8V3.1h14v3.3H52v-1
					c0-0.4-0.3-0.8-0.8-0.8h-5.5c-0.4,0-0.7,0.3-0.7,0.8v6.3h4.7c0.4,0,0.7-0.3,0.7-0.7v-1h0.8v5h-0.8V14c0-0.4-0.3-0.8-0.8-0.8H45
					v6.2c0,0.4,0.3,0.8,0.8,0.8h4.4c1.3,0,1.7-0.6,2-1.7l0.5-1.8L53.6,16.8L53.6,16.8z"/>
				<path class="st0" d="M5.3,55.6c0.5,0.4,1,0.8,1.6,1.1l6,3.5c2.9,1.5,4,5.1,2.4,8c-0.4,0.7-0.8,1.3-1.4,1.8
					C10.5,73,3.3,72.5,0,69.7l0.8-4.9h0.8c0,3.3,2.1,5.3,5.5,5.4c4,0.1,6.5-4.1,2.1-6.6L4.6,61c-2.4-1.4-4.5-3.3-4.3-6
					c0.3-6.1,10-6.5,13.9-3l-0.5,3.1h-0.8c0-3.4-5.1-4.6-7.3-3.1c-1.1,0.8-1.3,2.3-0.5,3.4C5.2,55.4,5.2,55.5,5.3,55.6L5.3,55.6z"/>
				<path class="st0" d="M33.2,52.9v3.9h-0.8v-1.6c0-0.4-0.3-0.8-0.8-0.8h-3.2c-0.4,0-0.8,0.3-0.8,0.8V70c0,0.4,0.3,0.8,0.8,0.8h0
					h0.8v0.8h-7.8v-0.8h0.8c0.4,0,0.8-0.3,0.8-0.8l0,0V55.2c0-0.4-0.3-0.8-0.8-0.8h-3.2c-0.4,0-0.8,0.3-0.8,0.8v1.6h-0.8v-3.9H33.2z
					"/>
				<path class="st0" d="M33.7,69.6l6.9-17.1h0.9l8.1,17.3c0.4,0.6,1,1,1.7,1v0.8h-8v-0.8h0.4c0.4,0,0.7-0.4,0.7-0.8
					c0-0.1,0-0.2-0.1-0.2l-1.5-3.2h-6.2l-1.3,3.2c-0.1,0.4,0.1,0.8,0.5,1c0.1,0,0.1,0,0.2,0h0.4v0.8H32v-0.8
					C32.8,70.8,33.5,70.3,33.7,69.6L33.7,69.6z M42.4,65.7l-2.9-6.3L37,65.7H42.4L42.4,65.7z"/>
				<path class="st0" d="M126.8,71.6h-2.1c-2.9,0-4.7-0.4-6.3-3c-0.8-1.3-2.3-4.8-3-5.5c-0.3-0.3-0.6-0.4-1-0.5v-0.8h0.9
					c4.1,0,4.4-7.4,0-7.4h-2.4V70c0,0.4,0.3,0.8,0.8,0.8c0,0,0,0,0,0h0.8v0.8h-7.8v-0.8h0.8c0.4,0,0.8-0.3,0.8-0.8c0,0,0,0,0,0V54.4
					c0-0.4-0.3-0.8-0.8-0.8l0,0h-0.8v-0.8h9.9c3.4,0,6.8,1.2,6.8,5.2c0.1,2.4-1.6,4.5-3.9,5c3.5,1.3,3.9,5.9,6.3,7.5
					c0.3,0.2,0.7,0.3,1.1,0.2L126.8,71.6L126.8,71.6z"/>
				<path class="st0" d="M132.6,54.5h1.1c3.9,0,5.4,2.8,5.4,7.8s-1.6,7.8-5.4,7.8h-1.1V54.5z M144,62.2c0-6.2-3.7-9.3-9.4-9.3h-8.2
					v0.8h0.8c0.4,0,0.8,0.3,0.8,0.8l0,0V70c0,0.4-0.3,0.8-0.8,0.8c0,0,0,0,0,0h-0.8v0.8h8.2C140.3,71.5,144,68.4,144,62.2L144,62.2z
					"/>
				<path class="st0" d="M89.4,69.6l6.9-17.1h0.9l8.1,17.3c0.4,0.6,1,1,1.7,1v0.8h-8v-0.8h0.4c0.4,0,0.7-0.4,0.7-0.8
					c0-0.1,0-0.2-0.1-0.2l-1.5-3.2h-6.2L91,69.7c-0.1,0.4,0.1,0.8,0.5,1c0.1,0,0.1,0,0.2,0h0.4v0.8h-4.5v-0.8
					C88.4,70.8,89.1,70.3,89.4,69.6L89.4,69.6z M98,65.7l-2.9-6.3l-2.5,6.3H98z"/>
				<path class="st0" d="M54.1,70c0,0.4,0.3,0.8,0.8,0.8l0,0h0.8v0.8H51v-0.8h0.8c0.4,0,0.8-0.3,0.8-0.8l0,0V54.4
					c0-0.4-0.3-0.8-0.8-0.8H51v-0.8h5.1c0.7,0,1.4,0.4,1.9,1l7.7,9.9v-9.4c0-0.4-0.3-0.8-0.8-0.8l0,0h-0.8v-0.8h4.7v0.8H68
					c-0.4,0-0.8,0.3-0.8,0.8l0,0v17.1h-0.6c-0.7,0-1.4-0.4-1.9-1L54.1,56.5V70z"/>
				<path class="st0" d="M76.5,54.5h1.1c3.8,0,5.4,2.8,5.4,7.8S81.5,70,77.6,70h-1.1V54.5z M87.9,62.2c0-6.2-3.7-9.3-9.4-9.3h-8.2
					v0.8h0.8c0.4,0,0.8,0.3,0.8,0.8l0,0V70c0,0.4-0.3,0.8-0.8,0.8c0,0,0,0,0,0h-0.8v0.8h8.2C84.2,71.5,87.9,68.4,87.9,62.2
					L87.9,62.2z"/>
				<path class="st0" d="M6.2,45.1V26.5h1.6c1.8-0.1,3.4,1.2,3.5,3c0,0.1,0,0.2,0,0.3c0.1,1.9-1.3,3.5-3.1,3.6c-0.1,0-0.2,0-0.3,0
					v0.8c3.4,0,4.8,2.3,4.8,5.4s-1.6,5.4-4.8,5.4H6.2z M9.3,24.9H0v0.8h0.8c0.4,0,0.8,0.3,0.8,0.8l0,0v18.8c0,0.4-0.4,0.7-0.8,0.7H0
					v0.7h10.2c3.8,0,7.6-2,7.6-7c0-3.6-2.4-5.3-5.2-5.9c2-0.4,3.4-2.2,3.3-4.2C16,25.8,12.4,24.9,9.3,24.9L9.3,24.9z"/>
				<path class="st0" d="M60.7,45.1c0,0.4,0.3,0.8,0.8,0.8h0.8v0.8h-7.8v-0.8h0.8c0.4,0,0.8-0.3,0.8-0.8V29.5c0-0.4-0.3-0.8-0.8-0.8
					h-0.8V28h7.8v0.8h-0.8c-0.4,0-0.8,0.3-0.8,0.8L60.7,45.1z"/>
				<path class="st0" d="M66.9,45.1c0,0.4,0.3,0.8,0.8,0.8l0,0h0.8v0.8h-4.7v-0.8h0.8c0.4,0,0.8-0.3,0.8-0.8l0,0V29.5
					c0-0.4-0.3-0.8-0.8-0.8l0,0h-0.8V28h5.1c0.7,0,1.4,0.4,1.9,1l7.7,9.9v-9.4c0-0.4-0.3-0.8-0.8-0.8l0,0h-0.8V28h4.7v0.8h-0.8
					c-0.4,0-0.8,0.3-0.8,0.8v0v17.1h-0.6c-0.7,0-1.4-0.4-1.9-1L66.9,31.6V45.1z"/>
				<path class="st0" d="M120.8,32.7c0.4,0.4,0.9,0.7,1.4,0.9l5.1,3c2.5,1.5,3.4,4.7,2,7.2c-0.3,0.5-0.7,1-1.1,1.4
					c-2.9,2.6-8.8,2.2-11.8-0.2l0.7-4.3h0.7c0,2.9,1.8,4.6,4.8,4.7c3.6,0.1,4.7-3.5,1.6-5.2l-4.7-2.8c-2-1-3.1-3.1-2.8-5.3
					c0.8-5.4,8.5-5.6,11.9-2.6l-0.4,2.7h-0.7c0-2.9-4.3-3.9-6.2-2.5c-0.9,0.7-1.1,1.9-0.4,2.8C120.7,32.5,120.8,32.6,120.8,32.7
					L120.8,32.7z"/>
				<path class="st0" d="M31.8,28h4.7v0.8h-0.8c-0.4,0-0.8,0.3-0.8,0.8v11.3c0,3.8-3.1,6.2-7,6.2s-7-2.4-7-6.2V29.5
					c0-0.4-0.3-0.8-0.8-0.8l0,0h-0.8V28h7.8v0.8h-0.8c-0.4,0-0.8,0.3-0.8,0.8l0,0c0,3.9,0,7.8,0,11.7c0,2.1,1.7,3.9,3.9,3.9
					c2.1,0,3.9-1.7,3.9-3.9c0-3.9,0-7.8,0-11.7c0-0.4-0.3-0.8-0.8-0.8h-0.8V28z"/>
				<path class="st0" d="M105,32.7c0.4,0.4,0.9,0.7,1.4,0.9l5.1,3c2.5,1.5,3.4,4.7,2,7.2c-0.3,0.5-0.7,1-1.1,1.4
					c-2.9,2.6-8.8,2.2-11.8-0.2l0.7-4.3h0.7c0,2.9,1.8,4.6,4.8,4.7c3.6,0.1,4.7-3.5,1.6-5.2l-4.7-2.8c-2-1-3.1-3.1-2.8-5.3
					c0.8-5.4,8.5-5.6,11.9-2.6l-0.4,2.7h-0.7c0-2.9-4.3-3.9-6.2-2.5c-0.9,0.7-1.1,1.9-0.4,2.8C104.9,32.5,104.9,32.6,105,32.7
					L105,32.7z"/>
				<path class="st0" d="M43.2,32.7c0.4,0.4,0.9,0.7,1.4,0.9l5.1,3c2.5,1.5,3.4,4.7,2,7.2c-0.3,0.5-0.7,1-1.1,1.4
					c-2.9,2.6-8.8,2.2-11.8-0.2l0.7-4.3h0.7c0,2.9,1.8,4.6,4.8,4.7c3.6,0.1,4.7-3.5,1.6-5.2l-4.7-2.8c-2-1-3.1-3.1-2.8-5.3
					c0.8-5.4,8.5-5.6,11.9-2.6l-0.4,2.7h-0.7c0-2.9-4.3-3.9-6.2-2.5c-0.9,0.7-1.1,1.9-0.4,2.8C43.1,32.5,43.1,32.6,43.2,32.7
					L43.2,32.7z"/>
				<path class="st0" d="M97.9,41.7l-0.8,5h-14v-0.8H84c0.4,0,0.8-0.3,0.8-0.8l0,0V29.5c0-0.4-0.3-0.8-0.8-0.8l0,0h-0.8V28h14v3.3
					h-0.8v-1c0-0.4-0.3-0.8-0.8-0.8l0,0h-5.5c-0.4,0-0.7,0.3-0.7,0.8v6.3h4.7c0.4,0,0.7-0.3,0.7-0.7v-1h0.8v5h-0.8v-1
					c0-0.4-0.3-0.8-0.8-0.8l0,0h-4.7v6.2c0,0.4,0.3,0.8,0.8,0.8l0,0h4.4c1.3,0,1.7-0.6,2-1.7l0.6-1.8L97.9,41.7L97.9,41.7z"/>
			</g>
		</g>
	</g>
</g>
</svg>
